<?xml version="1.0" encoding="utf-8"?>
<!-- Generator: Adobe Illustrator 18.1.0, SVG Export Plug-In . SVG Version: 6.00 Build 0)  -->
<svg version="1.1" xmlns="http://www.w3.org/2000/svg" xmlns:xlink="http://www.w3.org/1999/xlink" x="0px" y="0px"
	 viewBox="0 0 350 150" enable-background="new 0 0 350 150" xml:space="preserve">
<g id="Layer_2">
	<path fill="#212121" d="M0,0v150h350V0H0z M326,137l-271,1l13-34h271L326,137z"/>
</g>
<g id="Layer_1">
	<polygon fill="#2C7DC0" points="61,90 41,140 52,140 71,90 	"/>
	<path fill="#2C7DC0" d="M61,90"/>
	<polygon fill="#2C7DC0" points="348,90 342,102 57,102 61,90 	"/>
</g>
<g id="Trash_Icon">
	<polygon fill="#2C7DC0" points="35,111 12,111 12,131 14,133 33,133 35,131 	"/>
	<polygon fill="#2C7DC0" points="36,107 34,105 13,105 11,107 11,110 36,110 	"/>
	<polygon fill="#212121" points="29,114 32,114 32,127 31,128 30,128 29,127 	"/>
	<polygon fill="#212121" points="15,114 18,114 18,127 17,128 16,128 15,127 	"/>
	<polygon fill="#212121" points="22,114 25,114 25,127 24,128 23,128 22,127 	"/>
	<polygon fill="#2C7DC0" points="20,105 20,103 21,102 26,102 27,103 27,105 26,106 26,105 25,104 22,104 21,105 21,106 	"/>
	<polygon fill="#2C7DC0" points="19.6,60 13.5,56.5 10,50.4 10,43.5 13.5,37.4 19.6,33.9 26.5,33.9 32.6,37.4 36.1,43.5 36.1,50.4 
		32.6,56.5 26.5,60 	"/>
	<polygon fill="#212121" points="20.6,56 16.4,53.6 14,49.4 14,44.5 16.4,40.3 20.6,37.9 25.5,37.9 29.7,40.3 32.1,44.5 32.1,49.4 
		29.7,53.6 25.5,56 	"/>
	<polygon fill="#2C7DC0" points="22.5,49 21.5,48.5 21,47.5 21,46.4 21.5,45.5 22.5,44.9 23.6,44.9 24.5,45.5 25.1,46.4 25.1,47.5 
		24.5,48.5 23.6,49 	"/>
	<polygon fill="#2C7DC0" points="22.5,44.9 23,40 23.6,44.9 	"/>
	<polygon fill="#2C7DC0" points="21,34 21,32 20,32 19,31 19,30 20,29 26,29 27,30 27,31 26,32 25,32 25,34 	"/>
	<polygon fill="#2C7DC0" points="14.8,37.6 13.3,36 10,39 11.8,41.6 	"/>
</g>
<g id="Layer_4" display="none">
	<rect x="50" y="20" display="inline" fill="none" width="79" height="50"/>
	<text transform="matrix(1 0 0 1 50 67.0991)" display="inline" fill="#2C7DC0" font-family="'Exo-Bold'" font-size="60">60</text>
	<rect x="261" y="20" display="inline" fill="none" width="79" height="50"/>
	<text transform="matrix(1 0 0 1 261 67.0991)" display="inline" fill="#2C7DC0" font-family="'Exo-Bold'" font-size="60">1</text>
</g>
</svg>
